<?xml version="1.0" encoding="UTF-8"?>
<svg version="1.1" xmlns="http://www.w3.org/2000/svg" width="262" height="263">
<path d="M0 0 C86.46 0 172.92 0 262 0 C262 86.79 262 173.58 262 263 C175.54 263 89.08 263 0 263 C0 176.21 0 89.42 0 0 Z " fill="#FAFAFA" transform="translate(0,0)"/>
<path d="M0 0 C4.73758124 3.5899377 8.87502406 7.73519436 13 12 C13.68578125 12.65484375 14.3715625 13.3096875 15.078125 13.984375 C19.08921231 18.06773415 21.66024015 22.75925248 24.25 27.8125 C24.5797583 28.45219727 24.9095166 29.09189453 25.24926758 29.75097656 C38.19054309 56.28936904 36.62588263 92.83709944 31 121 C29.34385343 121.38218767 27.67542976 121.71395102 26 122 C25.67 121.67 25.34 121.34 25 121 C25.06585064 119.35074076 25.2046075 117.70425478 25.375 116.0625 C25.46523437 115.16660156 25.55546875 114.27070313 25.6484375 113.34765625 C25.83956958 111.5276541 26.03515595 109.70800282 26.25390625 107.89111328 C29.5297236 78.97253004 29.14059733 43.77806168 11.12109375 19.46484375 C0.2633372 6.67681937 -12.39325228 -0.68193707 -29 -3 C-33.37644998 -3.32531103 -37.62280098 -3.28890604 -42 -3 C-43.44439453 -2.91298828 -43.44439453 -2.91298828 -44.91796875 -2.82421875 C-59.28939421 -1.21446394 -73.36423848 7.39289155 -83 18 C-91.29562799 29.02675903 -94.65693029 41.05139899 -94.3203125 54.6953125 C-94.30990936 55.84998016 -94.29950623 57.00464783 -94.28878784 58.19430542 C-94.25350408 61.83841145 -94.19113437 65.4813342 -94.125 69.125 C-94.06974883 72.80424753 -94.02042446 76.48334202 -93.9826355 80.16281128 C-93.95811869 82.44219239 -93.92290819 84.72148839 -93.87600708 87.0005188 C-93.85641434 88.53384354 -93.85641434 88.53384354 -93.83642578 90.09814453 C-93.81991974 90.99904816 -93.8034137 91.89995178 -93.78640747 92.82815552 C-94 95 -94 95 -96 97 C-97.32 97 -98.64 97 -100 97 C-100.02505615 96.28980713 -100.0501123 95.57961426 -100.07592773 94.84790039 C-100.19298472 91.58596536 -100.31520746 88.32424278 -100.4375 85.0625 C-100.47681641 83.94552734 -100.51613281 82.82855469 -100.55664062 81.67773438 C-100.74029496 76.8603399 -100.93924963 72.09205699 -101.5546875 67.30859375 C-102.13973978 62.50480463 -101.95829284 57.82233823 -101.6875 53 C-101.65205078 52.16210938 -101.61660156 51.32421875 -101.58007812 50.4609375 C-100.71771203 33.83143003 -94.60509982 19.7095969 -82.50390625 8.08203125 C-58.73489476 -11.682217 -26.87800947 -17.47634583 0 0 Z " fill="#0C0C0C" transform="translate(167,74)"/>
<path d="M0 0 C26.23174664 -1.07333867 50.81747163 6.71577209 70.89013672 24.09863281 C71.64939453 24.71351562 72.40865234 25.32839844 73.19091797 25.96191406 C90.94945693 40.77603205 102.19307091 64.47385401 105.89013672 87.09863281 C106.06930938 89.50352813 106.05824189 91.68912539 105.89013672 94.09863281 C103.41513672 94.59363281 103.41513672 94.59363281 100.89013672 95.09863281 C98.73001076 91.48616685 98.22306161 87.7480156 97.57763672 83.66113281 C96.25184201 76.0440915 94.03634412 69.18209405 90.89013672 62.09863281 C90.45958984 61.10347656 90.02904297 60.10832031 89.58544922 59.08300781 C79.76823045 37.89556392 61.57627061 21.47796523 39.89013672 13.09863281 C16.23610353 4.50234157 -9.42305505 4.3268456 -32.55810547 14.75244141 C-57.31315991 26.83830377 -73.41677178 48.8350825 -82.26611328 74.54394531 C-82.54455078 75.38699219 -82.82298828 76.23003906 -83.10986328 77.09863281 C-83.40892578 77.98292969 -83.70798828 78.86722656 -84.01611328 79.77832031 C-84.72390414 81.88203202 -85.42205789 83.98832082 -86.10986328 86.09863281 C-87.42986328 85.76863281 -88.74986328 85.43863281 -90.10986328 85.09863281 C-91.65897346 80.31047407 -90.37650693 76.55305003 -88.79736328 71.97363281 C-88.39783447 70.801875 -88.39783447 70.801875 -87.99023438 69.60644531 C-83.27933117 56.42116527 -76.72643778 43.37363944 -67.10986328 33.09863281 C-66.23974609 32.13828125 -65.36962891 31.17792969 -64.47314453 30.18847656 C-47.53590736 12.02783418 -24.84387276 1.16141224 0 0 Z " fill="#0B0B0B" transform="translate(124.10986328125,31.9013671875)"/>
<path d="M0 0 C2.24414314 0.03181067 4.48758488 0.04105182 6.73193359 0.046875 C17.62485842 0.11638429 17.62485842 0.11638429 19.95458984 1.28125 C19.62458984 2.93125 19.29458984 4.58125 18.95458984 6.28125 C18.12958984 6.29583252 17.30458984 6.31041504 16.45458984 6.32543945 C-5.49017628 6.57452304 -5.49017628 6.57452304 -27.04541016 10.28125 C-28.15013672 10.55839844 -29.25486328 10.83554687 -30.39306641 11.12109375 C-56.48282066 18.36652014 -77.48269645 36.920208 -91.13134766 59.89453125 C-96.68116279 69.71430619 -101.24930296 79.32209999 -104.04541016 90.28125 C-104.31248779 91.2861145 -104.31248779 91.2861145 -104.58496094 92.3112793 C-106.01558596 98.08265166 -106.35682288 103.53639043 -106.29541016 109.46875 C-106.29154297 110.39002686 -106.28767578 111.31130371 -106.28369141 112.26049805 C-106.20411126 118.58546171 -105.53085688 124.63533918 -104.50634766 130.87890625 C-103.15347551 140.86493706 -102.56938428 151.41229742 -108.04541016 160.28125 C-110.21975129 163.1213958 -112.52404312 165.74571798 -115.04541016 168.28125 C-116.36541016 167.95125 -117.68541016 167.62125 -119.04541016 167.28125 C-118.49050785 163.3483799 -117.36432811 160.92398515 -115.04541016 157.71875 C-110.09078931 150.8465956 -110.25221023 143.56808281 -111.48803711 135.33105469 C-111.66810303 134.31946289 -111.84816895 133.30787109 -112.03369141 132.265625 C-117.0540014 100.66166372 -109.25137605 72.06962351 -90.63256836 46.3918457 C-82.18846756 35.17216132 -72.0980457 24.58532838 -60.04541016 17.28125 C-59.01287109 16.62769531 -57.98033203 15.97414063 -56.91650391 15.30078125 C-50.70896023 11.47944179 -44.4117198 8.42508634 -37.54541016 5.96875 C-36.5871936 5.62348267 -36.5871936 5.62348267 -35.60961914 5.27124023 C-23.79909635 1.28074393 -12.37954452 -0.17728594 0 0 Z " fill="#0C0C0C" transform="translate(129.04541015625,16.71875)"/>
<path d="M0 0 C4.31686303 2.68568196 7.08881223 6.6094298 9.046875 11.2734375 C16.12779046 57.12997782 6.29748049 104.12450868 -19.953125 142.2734375 C-21.26242498 143.95904989 -22.58642328 145.63402237 -23.953125 147.2734375 C-25.603125 146.9434375 -27.253125 146.6134375 -28.953125 146.2734375 C-28.41420545 142.1368658 -27.19750815 139.98084544 -24.578125 136.7734375 C-6.22322391 112.19039223 3.17366889 80.2425719 3.21484375 49.70703125 C3.21817215 48.82870132 3.22150055 47.9503714 3.22492981 47.04542542 C3.22995668 45.20257078 3.23233946 43.35970718 3.23217773 41.5168457 C3.23437193 38.71485367 3.2525939 35.91325117 3.27148438 33.11132812 C3.27441776 31.30989716 3.27640292 29.50846435 3.27734375 27.70703125 C3.28452927 26.87973007 3.29171478 26.05242889 3.29911804 25.20005798 C3.27551244 19.12955454 3.03985577 12.88492955 -0.765625 7.8984375 C-4.98765886 4.76206949 -8.69381308 3.62944012 -13.953125 4.2734375 C-17.83842669 6.40654431 -20.63368047 8.49335151 -22.953125 12.2734375 C-23.35247177 14.78452857 -23.35247177 14.78452857 -23.203125 17.4609375 C-23.18765625 18.34136719 -23.1721875 19.22179687 -23.15625 20.12890625 C-23.00341158 22.49496256 -22.75209621 24.8549687 -22.453125 27.20703125 C-21.69160301 33.83711858 -21.72944713 40.4823575 -21.703125 47.1484375 C-21.6825 48.44652344 -21.661875 49.74460938 -21.640625 51.08203125 C-21.60941425 58.81449418 -22.00582424 66.03496245 -24.953125 73.2734375 C-25.943125 74.2634375 -25.943125 74.2634375 -26.953125 75.2734375 C-29.078125 74.8984375 -29.078125 74.8984375 -30.953125 74.2734375 C-30.06243172 66.63892371 -30.06243172 66.63892371 -29.44165039 64.56323242 C-28.79045157 61.51096168 -28.8232358 58.61671651 -28.8203125 55.49609375 C-28.81837891 53.51899414 -28.81837891 53.51899414 -28.81640625 51.50195312 C-28.81954834 50.47581909 -28.81954834 50.47581909 -28.82275391 49.42895508 C-28.82809804 47.34644251 -28.82280261 45.26414645 -28.81640625 43.18164062 C-28.81769531 41.86228516 -28.81898437 40.54292969 -28.8203125 39.18359375 C-28.82144043 37.97840088 -28.82256836 36.77320801 -28.82373047 35.53149414 C-28.93868641 32.63699031 -29.32984372 30.09076458 -29.953125 27.2734375 C-31.16778637 10.80609973 -31.16778637 10.80609973 -26.51953125 4.8203125 C-18.51447273 -3.08493232 -10.12799527 -4.92430115 0 0 Z " fill="#0A0A0A" transform="translate(141.953125,114.7265625)"/>
<path d="M0 0 C5.60526134 0.54184193 10.49206057 1.56149488 15.75 3.5625 C16.44246826 3.82571045 17.13493652 4.0889209 17.84838867 4.36010742 C43.05758039 14.40132775 61.84461312 36.74111324 73.4375 60.5625 C73.83839844 61.37565674 74.23929687 62.18881348 74.65234375 63.02661133 C80.47693227 75.50593981 82.83083413 89.0284237 84.75 102.5625 C84.85772736 103.31168701 84.96545471 104.06087402 85.07644653 104.83276367 C88.11113324 126.3615189 88.59812124 148.49006352 85 170 C84 171 84 171 81.4375 171.0625 C80.633125 171.041875 79.82875 171.02125 79 171 C78.92302841 166.30473298 78.98288956 161.7511252 79.48828125 157.08203125 C81.14957465 139.40059367 80.88877304 121.35835306 77.37597656 103.93554688 C76.81245346 101.03450067 76.41296097 98.11322348 76 95.1875 C75.67255194 93.12405746 75.33924021 91.06153667 75 89 C74.83242187 87.91976562 74.66484375 86.83953125 74.4921875 85.7265625 C69.65660224 58.97781869 52.57348154 34.89053262 30.6875 19.3125 C22.14261684 13.4379717 12.97151866 9.20549413 2.92578125 6.640625 C1 6 1 6 -1 4 C-0.625 1.875 -0.625 1.875 0 0 Z " fill="#0C0C0C" transform="translate(162,22)"/>
<path d="M0 0 C1.125 3.75 1.125 3.75 0 6 C-2.484375 6.2734375 -2.484375 6.2734375 -5.75 6.375 C-19.49547575 7.26423582 -30.90456351 12.0041004 -40.43359375 22.01953125 C-47.08309308 30.42675359 -49.377136 40.24992822 -49.25 50.75 C-49.24419922 51.93940186 -49.24419922 51.93940186 -49.23828125 53.15283203 C-49.17464292 57.50056759 -48.85275555 61.59904003 -48 65.875 C-43.2928806 90.50210296 -50.74242793 113.35416876 -63.94921875 134.0234375 C-67.06779527 138.54982857 -70.47180751 142.78988796 -74 147 C-74.67546875 147.8765625 -75.3509375 148.753125 -76.046875 149.65625 C-78 152 -78 152 -81 154 C-83.6875 153.625 -83.6875 153.625 -86 153 C-85.875 150.8125 -85.875 150.8125 -85 148 C-83.56048554 146.82830218 -82.11976258 145.65804054 -80.67138672 144.49731445 C-77.64750491 141.78836512 -75.43005967 138.50878505 -73.125 135.1875 C-72.60615234 134.44338867 -72.08730469 133.69927734 -71.55273438 132.93261719 C-60.92435196 117.34564 -53.8257384 100.68829431 -53.8125 81.625 C-53.79413086 80.24441406 -53.79413086 80.24441406 -53.77539062 78.8359375 C-53.76385116 73.45085316 -54.51129588 69.19609468 -56 64 C-57.59916644 46.64298536 -56.1185461 31.04785536 -45 17 C-33.0149097 3.64337648 -17.47350262 -0.69584745 0 0 Z " fill="#0A0A0A" transform="translate(136,80)"/>
<path d="M0 0 C7.58698746 0.92524237 14.74511231 9.12145638 19.40625 14.75 C28.97826803 28.26343722 31.13248118 43.69284707 31.203125 59.83203125 C31.20882507 60.86325607 31.21452515 61.8944809 31.22039795 62.95695496 C31.22980967 65.13625069 31.23636663 67.31556042 31.24023438 69.49487305 C31.24985849 72.76442713 31.2808853 76.0333296 31.3125 79.30273438 C31.39799127 95.94461272 30.25035758 112.01144841 24.875 127.875 C24.57859619 128.77790771 24.28219238 129.68081543 23.97680664 130.61108398 C20.58732004 140.65926886 16.3820324 150.35141386 12 160 C11.67515625 160.71736328 11.3503125 161.43472656 11.015625 162.17382812 C9.37045799 165.79528686 7.70104394 169.40446006 6 173 C4.35 173 2.7 173 1 173 C0.12879542 170.57103066 -0.11252357 169.34012719 0.70922852 166.85620117 C1.09522217 166.09283447 1.48121582 165.32946777 1.87890625 164.54296875 C2.30276611 163.68541992 2.72662598 162.82787109 3.16333008 161.94433594 C3.85591919 160.57970215 3.85591919 160.57970215 4.5625 159.1875 C5.49803841 157.28153815 6.43032266 155.37397561 7.359375 153.46484375 C7.81505859 152.5301123 8.27074219 151.59538086 8.74023438 150.63232422 C19.73555893 127.65721001 24.56194752 104.18795027 24.33618164 78.83203125 C24.31251935 76.0023138 24.31566082 73.17354219 24.32226562 70.34375 C24.30925936 61.54004113 24.05708158 52.8198172 23.11328125 44.0625 C23.03709061 43.34739258 22.96089996 42.63228516 22.88240051 41.89550781 C21.3445143 29.21524527 15.99908872 18.66021291 6.0390625 10.60546875 C3.3987266 8.66763867 0.73551614 6.80021099 -2 5 C-1.125 1.125 -1.125 1.125 0 0 Z " fill="#0C0C0C" transform="translate(153,86)"/>
<path d="M0 0 C-0.33 1.65 -0.66 3.3 -1 5 C-5.2139271 4.42819868 -8.72024914 3.41293972 -12.625 1.75 C-36.22696435 -7.61456256 -62.28029328 -10.27480785 -87 -4 C-87.71172363 -3.83371094 -88.42344727 -3.66742188 -89.15673828 -3.49609375 C-111.41456471 1.7126717 -130.63921894 13.05118106 -147 29 C-147.71671875 29.67804687 -148.4334375 30.35609375 -149.171875 31.0546875 C-153.63338876 35.36524779 -157.4363832 39.92454577 -161 45 C-162.32 44.67 -163.64 44.34 -165 44 C-164.76409047 34.79952836 -156.08788744 27.62089032 -149.91015625 21.6015625 C-112.02138692 -12.26947156 -45.65568546 -30.43712364 0 0 Z " fill="#0B0B0B" transform="translate(190,14)"/>
<path d="M0 0 C1.65 0 3.3 0 5 0 C13.02699525 14.04226217 18.21026965 27.95905051 21 44 C21.20625 45.1653125 21.4125 46.330625 21.625 47.53125 C24.92206767 70.06121241 23.81631543 93.6370209 20 116 C19.76901103 117.46736612 19.53851301 118.93480964 19.30859375 120.40234375 C17.20680867 133.179983 13.77681533 148.81319738 7 160 C4.91015625 160.87890625 4.91015625 160.87890625 3 161 C2.67 160.67 2.34 160.34 2 160 C2.46095103 155.07089698 3.64198537 150.76934099 5.3125 146.125 C12.89195121 124.21934171 16.22811998 101.05339595 16.1875 77.9375 C16.18656342 77.24891907 16.18562683 76.56033813 16.18466187 75.85089111 C16.15402537 65.45410126 15.96872182 55.24260975 14 45 C13.84402344 44.18418457 13.68804687 43.36836914 13.52734375 42.52783203 C10.92357325 29.44870704 7.48467679 16.22701519 0 5 C-0.125 2.3125 -0.125 2.3125 0 0 Z " fill="#0C0C0C" transform="translate(194,81)"/>
<path d="M0 0 C0.59103516 0.2261499 1.18207031 0.4522998 1.79101562 0.68530273 C1.32202439 5.37521511 -0.4441812 7.38019335 -3.70898438 10.68530273 C-18.20560315 26.07497968 -25.8240611 41.50440559 -25.45898438 62.87280273 C-25.45382813 64.09161133 -25.44867188 65.31041992 -25.44335938 66.56616211 C-25.39009486 72.7015679 -25.06467048 78.61464774 -24.20898438 84.68530273 C-23.08383061 105.67072871 -28.13530106 123.98218021 -41.83398438 140.12280273 C-47.03339643 145.76323635 -47.03339643 145.76323635 -50.20898438 147.68530273 C-53.02148437 147.43530273 -53.02148437 147.43530273 -55.20898438 146.68530273 C-54.86788608 143.8152042 -54.64162401 142.13588108 -52.60742188 140.01733398 C-51.9396875 139.51588867 -51.27195312 139.01444336 -50.58398438 138.49780273 C-38.90632258 128.82560701 -33.18622925 114.41344171 -31.20898438 99.68530273 C-30.86874775 93.4373211 -30.84389147 87.30370338 -31.70898438 81.09936523 C-32.50821668 75.07024737 -32.43320091 69.00730938 -32.45898438 62.93530273 C-32.47960937 61.73647461 -32.50023438 60.53764648 -32.52148438 59.30249023 C-32.61478989 37.79556888 -23.16268506 22.21165411 -9.20898438 6.68530273 C-8.60699219 6.0045166 -8.005 5.32373047 -7.38476562 4.62231445 C-6.47791016 3.64609131 -6.47791016 3.64609131 -5.55273438 2.65014648 C-5.00810547 2.05709717 -4.46347656 1.46404785 -3.90234375 0.85302734 C-2.20898438 -0.31469727 -2.20898438 -0.31469727 0 0 Z " fill="#0C0C0C" transform="translate(81.208984375,65.314697265625)"/>
<path d="M0 0 C2.475 0.495 2.475 0.495 5 1 C15.0115501 33.03696033 5.22710571 71.28141472 -9.453125 100.2421875 C-14.90689254 110.61593197 -21.42667951 120.04408422 -29 129 C-30.32 128.67 -31.64 128.34 -33 128 C-33.29362912 124.95693457 -33.28910683 123.43326637 -31.56640625 120.8515625 C-30.90511719 120.11679688 -30.24382812 119.38203125 -29.5625 118.625 C-5.87662957 90.30221314 3.99200303 50.75393898 0.77441406 14.45507812 C0.39318416 11.14549988 -0.09374125 7.88138244 -0.66015625 4.59765625 C-1 2 -1 2 0 0 Z " fill="#0B0B0B" transform="translate(129,128)"/>
<path d="M0 0 C4.16875613 0.52596456 6.26819527 2.80506467 9.25 5.625 C10.22853981 6.54103468 11.20771029 7.4563961 12.1875 8.37109375 C13.115625 9.23863281 14.04375 10.10617188 15 11 C16.97134007 12.72834502 18.95649043 14.43774759 20.953125 16.13671875 C44.97366533 38.00274497 56.56955655 68.25280512 60 100 C60.0628389 102.33258006 60.08680521 104.66670025 60.0625 107 C60.05347656 108.134375 60.04445313 109.26875 60.03515625 110.4375 C60.02355469 111.283125 60.01195312 112.12875 60 113 C58.34385343 113.38218767 56.67542976 113.71395102 55 114 C53.07304812 112.07304812 53.64552114 109.14877913 53.45581055 106.5625 C52.18348239 89.56190176 49.08068199 72.60293996 42 57 C41.54882812 55.989375 41.09765625 54.97875 40.6328125 53.9375 C31.52868831 34.64659901 15.24556812 18.56982749 -1 5 C-0.67 3.35 -0.34 1.7 0 0 Z " fill="#0C0C0C" transform="translate(202,22)"/>
<path d="M0 0 C10.09200758 7.24306764 14.18763257 18.46322367 16.16259766 30.28271484 C16.45647023 32.18625956 16.72902459 34.09306112 17 36 C17.19722656 37.25103516 17.19722656 37.25103516 17.3984375 38.52734375 C18.33292805 45.30871435 18.08743161 52.17062016 18 59 C16.34385343 59.38218767 14.67542976 59.71395102 13 60 C11.19774573 58.19774573 11.56999538 55.42299286 11.3515625 52.98046875 C11.23296875 51.72943359 11.114375 50.47839844 10.9921875 49.18945312 C10.74947723 46.56490749 10.51426995 43.93989951 10.28125 41.31445312 C8.53463162 22.31159173 8.53463162 22.31159173 -2.14453125 7.18359375 C-9.52600854 1.96500248 -17.00189256 -0.08620969 -26 1 C-33.02550449 2.91416544 -39.56753139 5.89393878 -43.40234375 12.3671875 C-45.51184045 16.48834916 -47.30769082 20.69230389 -49 25 C-50.65 24.67 -52.3 24.34 -54 24 C-53.42641777 15.20507254 -49.48760137 7.52427167 -43.03125 1.53515625 C-29.52820294 -8.67003124 -14.44684029 -8.30114374 0 0 Z " fill="#0C0C0C" transform="translate(151,102)"/>
<path d="M0 0 C3.69230769 0.69230769 3.69230769 0.69230769 5 2 C7.6220456 40.76654691 -2.07214507 68.91151372 -27.4609375 98.12890625 C-28.9311936 99.79142661 -30.43066464 101.43066464 -32 103 C-34.0625 102.8125 -34.0625 102.8125 -36 102 C-36.33 101.01 -36.66 100.02 -37 99 C-35.98828125 97.484375 -35.98828125 97.484375 -34.3125 95.75 C-22.5003369 82.85111789 -12.34642506 69.64059793 -6.625 52.9375 C-6.38604004 52.24229248 -6.14708008 51.54708496 -5.90087891 50.83081055 C-2.20236484 39.2250823 -1.68008631 27.3438152 -1.4375 15.25 C-1.37963827 12.56749227 -1.3143556 9.88541403 -1.24609375 7.203125 C-1.22216553 6.03426758 -1.1982373 4.86541016 -1.17358398 3.66113281 C-1 1 -1 1 0 0 Z " fill="#0A0A0A" transform="translate(99,142)"/>
<path d="M0 0 C1.36318359 0.47566406 1.36318359 0.47566406 2.75390625 0.9609375 C9.10112992 3.34431576 14.89633966 6.50932285 20.6875 10 C21.39543701 10.41515869 22.10337402 10.83031738 22.83276367 11.25805664 C27.77562127 14.34060128 27.77562127 14.34060128 28.95703125 17.8125 C28.97121094 18.534375 28.98539062 19.25625 29 20 C27.43359375 20.75390625 27.43359375 20.75390625 25 21 C22.55212969 19.73591144 20.3546976 18.44037416 18.0625 16.9375 C-1.29745333 4.82069699 -19.56744521 0.97819807 -42 6 C-45.4056255 6.99031507 -48.76974916 8.04613909 -52.125 9.1953125 C-54.91017366 9.97485839 -57.12759874 10.15840448 -60 10 C-60.33 8.68 -60.66 7.36 -61 6 C-56.73212673 3.1096779 -52.4645534 1.75490035 -47.5625 0.375 C-46.45551758 0.05015625 -46.45551758 0.05015625 -45.32617188 -0.28125 C-31.25016556 -4.33513982 -13.80602763 -5.50451021 0 0 Z " fill="#0C0C0C" transform="translate(155,51)"/>
<path d="M0 0 C2.125 0.375 2.125 0.375 4 1 C4.78277573 3.2748831 5.17322727 4.52657125 4.33251953 6.82421875 C3.80053955 7.74654297 3.80053955 7.74654297 3.2578125 8.6875 C0.93877496 12.99456887 -0.62627633 17.35316363 -2.125 22 C-2.37636719 22.75539063 -2.62773437 23.51078125 -2.88671875 24.2890625 C-6.74126051 36.03431539 -8.2043169 47.12879241 -8.25 59.5 C-8.25394775 60.44544678 -8.25789551 61.39089355 -8.26196289 62.36499023 C-8.20396706 69.4972812 -7.4230701 76.2964595 -5.97949219 83.27734375 C-5.18769447 87.17203321 -4.86879548 90.15690122 -6 94 C-7.65 93.67 -9.3 93.34 -11 93 C-11.48362696 90.83432456 -11.96167317 88.66740259 -12.4375 86.5 C-12.70433594 85.2934375 -12.97117187 84.086875 -13.24609375 82.84375 C-17.80148797 59.61832042 -15.07267883 37.01639682 -7 15 C-6.55011719 13.75992188 -6.10023437 12.51984375 -5.63671875 11.2421875 C-2.30877846 2.30877846 -2.30877846 2.30877846 0 0 Z " fill="#0B0B0B" transform="translate(15,70)"/>
<path d="M0 0 C2.125 0.375 2.125 0.375 4 1 C3.52177255 9.19701816 2.3885111 16.96430014 0.4375 24.9375 C0.17356445 26.01725098 -0.09037109 27.09700195 -0.36230469 28.20947266 C-4.85916941 45.91360309 -11.89426234 62.19124908 -21 78 C-21.65029175 79.13864502 -21.65029175 79.13864502 -22.3137207 80.30029297 C-22.74644287 81.03006348 -23.17916504 81.75983398 -23.625 82.51171875 C-24.20701172 83.49918091 -24.20701172 83.49918091 -24.80078125 84.5065918 C-26 86 -26 86 -28.8125 86.5 C-29.534375 86.335 -30.25625 86.17 -31 86 C-30.56996443 79.96386435 -28.67784243 76.28330406 -25.4375 71.25 C-13.0031402 50.87511729 -6.57267402 27.9929741 -2.60546875 4.5625 C-2 2 -2 2 0 0 Z " fill="#0B0B0B" transform="translate(164,175)"/>
<path d="M0 0 C3.69230769 0.69230769 3.69230769 0.69230769 5 2 C5.13922337 4.73761149 5.21275933 7.44799466 5.23828125 10.1875 C5.24798447 11.02899094 5.25768768 11.87048187 5.26768494 12.73747253 C5.29283716 15.49169597 5.30524841 18.24567276 5.3125 21 C5.31642761 22.39890976 5.31642761 22.39890976 5.32043457 23.82608032 C5.32646401 43.80483377 3.40423001 62.95763524 -3 82 C-4.9375 82.5625 -4.9375 82.5625 -7 83 C-8 82 -8 82 -8.01953125 80.19921875 C-7.40406694 72.73235932 -5.99263789 65.49320186 -4.46020508 58.1706543 C-4.2877124 57.34605713 -4.11521973 56.52145996 -3.9375 55.671875 C-3.78152344 54.9406543 -3.62554687 54.20943359 -3.46484375 53.45605469 C-2.22671884 46.91428126 -1.81871791 40.58242556 -1.71875 33.9453125 C-1.68099355 32.01302076 -1.64323301 30.08072909 -1.60546875 28.1484375 C-1.55161555 25.11981244 -1.49942274 22.09116307 -1.44775391 19.0625 C-1.39622147 16.12751475 -1.33894809 13.19268195 -1.28125 10.2578125 C-1.26767456 9.34436066 -1.25409912 8.43090881 -1.2401123 7.48977661 C-1.11293244 1.11293244 -1.11293244 1.11293244 0 0 Z " fill="#0C0C0C" transform="translate(227,141)"/>
<path d="M0 0 C1.67542976 0.28604898 3.34385343 0.61781233 5 1 C5.04898438 1.97839844 5.09796875 2.95679688 5.1484375 3.96484375 C5.54935782 12.40071834 5.54935782 12.40071834 7.0625 20.6875 C9.96374946 32.78728458 7.28786006 44.28287256 0.89697266 54.81835938 C-2.53033754 59.93116093 -6.38414063 64.90559755 -11 69 C-13.25 68.75 -13.25 68.75 -15 68 C-15.69140625 66.1953125 -15.69140625 66.1953125 -16 64 C-14.77734375 62.4296875 -14.77734375 62.4296875 -12.9375 60.875 C-5.76300993 54.17213975 0.26371078 43.93952593 1.3125 34.0546875 C1.42873592 28.37365711 0.71743558 23.2440639 -0.55078125 17.73046875 C-1.45664285 12.22440566 -1.33250869 6.55985459 -1 1 C-0.67 0.67 -0.34 0.34 0 0 Z " fill="#0C0C0C" transform="translate(33,131)"/>
<path d="M0 0 C1.32 0.33 2.64 0.66 4 1 C4.83894884 3.37269381 5.13422258 4.60824965 4.30664062 7.02368164 C3.92701172 7.72871826 3.54738281 8.43375488 3.15625 9.16015625 C2.73819092 9.9480957 2.32013184 10.73603516 1.8894043 11.54785156 C1.43090088 12.37768555 0.97239746 13.20751953 0.5 14.0625 C0.03440674 14.9194043 -0.43118652 15.77630859 -0.91088867 16.65917969 C-2.25716477 19.11591844 -3.6238452 21.55990057 -5 24 C-5.58394531 25.04542969 -6.16789062 26.09085938 -6.76953125 27.16796875 C-10.19971019 32.90809098 -14.32671826 38.02105289 -18.625 43.125 C-19.17583252 43.78983398 -19.72666504 44.45466797 -20.29418945 45.13964844 C-24.31923045 49.78163996 -24.31923045 49.78163996 -27.8984375 50.9296875 C-28.59195313 50.95289063 -29.28546875 50.97609375 -30 51 C-30.9375 48.9375 -30.9375 48.9375 -31 46 C-29.56847562 44.20078957 -27.91681269 42.75034218 -26.2265625 41.19140625 C-14.51869213 29.66839699 -7.06163377 14.60474257 0 0 Z " fill="#0C0C0C" transform="translate(108,202)"/>
<path d="M0 0 C2.0625 0.4375 2.0625 0.4375 4 1 C5.85323093 6.35110739 3.36916953 11.05329914 1.625 16.1875 C1.26792969 17.25291016 0.91085938 18.31832031 0.54296875 19.41601562 C-2.72407725 28.82714296 -6.96639188 37.4242232 -12 46 C-13.65 46 -15.3 46 -17 46 C-16.50205489 40.95121481 -15.42378975 37.46306295 -12.9375 33.0625 C-7.84727042 23.61633811 -4.9319477 13.29598999 -1.73681641 3.09448242 C-1 1 -1 1 0 0 Z " fill="#0D0D0D" transform="translate(190,208)"/>
<path d="M0 0 C1.32 0 2.64 0 4 0 C5.14144121 8.37056884 0.66676408 15.28950241 -4.0859375 21.90234375 C-17.89888133 39.18064015 -17.89888133 39.18064015 -25 40 C-25.73828125 37.71875 -25.73828125 37.71875 -26 35 C-24.48046875 33.21875 -24.48046875 33.21875 -22.1875 31.5 C-12.26586979 23.31465508 -5.68366064 12.8892924 -1 1 C-0.67 0.67 -0.34 0.34 0 0 Z " fill="#0B0B0B" transform="translate(63,185)"/>
</svg>
